<svg width="17" height="24" viewBox="0 0 17 24" fill="none" xmlns="http://www.w3.org/2000/svg">
<path fill-rule="evenodd" clip-rule="evenodd" d="M5.60244 23.7964V19.5415H11.875V23.7964H16.6021V0.878052H0.874573V23.7964H5.60244ZM11.875 2.98345H14.5206V5.65845H11.875V2.98345ZM14.5206 6.87218H11.875V9.5479H14.5206V6.87218ZM11.875 10.7616H14.5206V13.4359H11.875V10.7616ZM14.5206 14.6496H11.875V17.3261H14.5206V14.6496ZM7.41627 2.98345H10.0626V5.65845H7.41627V2.98345ZM10.0626 6.87218H7.41627V9.5479H10.0626V6.87218ZM7.41627 10.7616H10.0626V13.4359H7.41627V10.7616ZM10.0626 14.6496H7.41627V17.3261H10.0626V14.6496ZM2.95755 2.98345H5.60315V5.65845H2.95755V2.98345ZM5.60315 6.87218H2.95755V9.5479H5.60315V6.87218ZM2.95755 10.7616H5.60315V13.4359H2.95755V10.7616ZM5.60315 14.6496H2.95755V17.3261H5.60315V14.6496Z" fill="#58BEBF"/>
</svg>
