<svg width="60" height="51" viewBox="0 0 60 51" fill="none" xmlns="http://www.w3.org/2000/svg">
<path d="M40.2348 2.40906H2.16663V35.4015H40.2348V2.40906Z" stroke="#5F5FFE" stroke-width="4" stroke-linecap="round" stroke-linejoin="round"/>
<path d="M40.2347 15.0985H50.3862L57.9999 22.7121V35.4015H40.2347V15.0985Z" stroke="#5F5FFE" stroke-width="4" stroke-linecap="round" stroke-linejoin="round"/>
<path d="M13.5871 48.0908C17.0912 48.0908 19.9318 45.2501 19.9318 41.7461C19.9318 38.242 17.0912 35.4014 13.5871 35.4014C10.083 35.4014 7.24243 38.242 7.24243 41.7461C7.24243 45.2501 10.083 48.0908 13.5871 48.0908Z" stroke="#5F5FFE" stroke-width="4" stroke-linecap="round" stroke-linejoin="round"/>
<path d="M46.5794 48.0908C50.0835 48.0908 52.9241 45.2501 52.9241 41.7461C52.9241 38.242 50.0835 35.4014 46.5794 35.4014C43.0754 35.4014 40.2347 38.242 40.2347 41.7461C40.2347 45.2501 43.0754 48.0908 46.5794 48.0908Z" stroke="#5F5FFE" stroke-width="4" stroke-linecap="round" stroke-linejoin="round"/>
</svg>
