<svg width="48" height="48" viewBox="0 0 48 48" fill="none" xmlns="http://www.w3.org/2000/svg">
<path d="M41.6 24V44C41.6 45.1046 40.7046 46 39.6 46H8.4C7.29543 46 6.4 45.1046 6.4 44V24" stroke="#FFCF4F" stroke-width="3" stroke-linecap="round" stroke-linejoin="round"/>
<path d="M44 13H4C2.89543 13 2 13.8954 2 15V22C2 23.1046 2.89543 24 4 24H44C45.1046 24 46 23.1046 46 22V15C46 13.8954 45.1046 13 44 13Z" stroke="#FFCF4F" stroke-width="3" stroke-linecap="round" stroke-linejoin="round"/>
<path d="M24 46V13" stroke="#FFCF4F" stroke-width="3" stroke-linecap="round" stroke-linejoin="round"/>
<path d="M23.3294 10.6599C23.7444 11.8518 22.8225 13 21.5604 13H14.1C12.6413 13 11.2424 12.4205 10.2109 11.3891C9.17946 10.3576 8.6 8.95869 8.6 7.5C8.6 6.04131 9.17946 4.64236 10.2109 3.61091C11.2424 2.57946 12.6413 2 14.1 2C19.51 2 22.2049 7.43002 23.3294 10.6599Z" stroke="#FFCF4F" stroke-width="3" stroke-linecap="round" stroke-linejoin="round"/>
<path d="M24.6706 10.6599C24.2556 11.8518 25.1775 13 26.4396 13H33.9C35.3587 13 36.7576 12.4205 37.7891 11.3891C38.8205 10.3576 39.4 8.95869 39.4 7.5C39.4 6.04131 38.8205 4.64236 37.7891 3.61091C36.7576 2.57946 35.3587 2 33.9 2C28.49 2 25.7951 7.43002 24.6706 10.6599Z" stroke="#FFCF4F" stroke-width="3" stroke-linecap="round" stroke-linejoin="round"/>
</svg>
