<svg width="552" height="584" viewBox="0 0 552 584" fill="none" xmlns="http://www.w3.org/2000/svg">
<path fill-rule="evenodd" clip-rule="evenodd" d="M323.916 0H245.249C224.67 17.0011 207.815 36.5616 195.76 58.2389C165.024 113.511 135.679 164.465 89.2917 206.946C65.0274 229.167 36.1362 249.04 0 266.027V311.602C35.0101 294.949 63.0324 275.57 86.5902 253.996C132.439 212.008 161.51 161.6 192.265 106.295C218.157 59.7324 265.524 23.006 323.916 0ZM0 316.027V361.602C35.0101 344.949 63.0324 325.57 86.5902 303.996C132.439 262.008 161.51 211.6 192.265 156.295C223.347 100.4 285.373 58.6796 360.27 37.852C418.98 21.5259 485.733 17.9937 552 30.5896V0H335.26C272.953 22.4157 222.525 60.1097 195.76 108.239C165.024 163.511 135.679 214.465 89.2917 256.946C65.0274 279.167 36.1362 299.04 0 316.027ZM0 411.602V366.027C36.1362 349.04 65.0274 329.167 89.2917 306.946C135.679 264.465 165.024 213.511 195.76 158.239C226.169 103.557 287.124 62.3445 361.342 41.7058C419.691 25.4797 486.103 22.0141 552 34.6619V80.5896C485.733 67.9937 418.98 71.5259 360.27 87.852C285.373 108.68 223.347 150.4 192.265 206.295C161.51 261.6 132.439 312.008 86.5902 353.996C63.0324 375.57 35.0101 394.949 0 411.602ZM0 416.027V461.602C35.0101 444.949 63.0324 425.57 86.5902 403.996C132.439 362.008 161.51 311.6 192.265 256.295C223.347 200.4 285.373 158.68 360.27 137.852C418.98 121.526 485.733 117.994 552 130.59V84.6619C486.103 72.0141 419.691 75.4797 361.342 91.7058C287.124 112.345 226.169 153.557 195.76 208.239C165.024 263.511 135.679 314.465 89.2917 356.946C65.0274 379.167 36.1362 399.04 0 416.027ZM0 511.602V466.027C36.1362 449.04 65.0274 429.167 89.2917 406.946C135.679 364.465 165.024 313.511 195.76 258.239C226.169 203.557 287.124 162.345 361.342 141.706C419.691 125.48 486.103 122.014 552 134.662V180.59C485.733 167.994 418.98 171.526 360.27 187.852C285.373 208.68 223.347 250.4 192.265 306.295C161.51 361.6 132.439 412.008 86.5902 453.996C63.0324 475.57 35.0101 494.949 0 511.602ZM0 516.027V561.602C35.0101 544.949 63.0324 525.57 86.5902 503.996C132.439 462.008 161.51 411.6 192.265 356.295C223.347 300.4 285.373 258.68 360.27 237.852C418.98 221.526 485.733 217.994 552 230.59V184.662C486.103 172.014 419.691 175.48 361.342 191.706C287.124 212.345 226.169 253.557 195.76 308.239C165.024 363.511 135.679 414.465 89.2917 456.946C65.0274 479.167 36.1362 499.04 0 516.027ZM0 584V566.027C36.1362 549.039 65.0274 529.167 89.2917 506.946C135.679 464.465 165.024 413.511 195.76 358.239C226.169 303.557 287.124 262.345 361.342 241.706C419.691 225.48 486.103 222.014 552 234.662V280.59C485.733 267.994 418.98 271.526 360.27 287.852C285.373 308.68 223.347 350.4 192.265 406.295C161.51 461.6 132.439 512.008 86.5902 553.996C75.0739 564.542 62.4907 574.564 48.5457 584H0ZM55.595 584H106.657C141.438 546.358 166.249 503.078 192.265 456.295C223.347 400.4 285.373 358.68 360.27 337.852C418.98 321.526 485.733 317.994 552 330.59V284.662C486.103 272.014 419.691 275.48 361.342 291.706C287.124 312.345 226.169 353.557 195.76 408.239C165.024 463.511 135.679 514.465 89.2917 556.946C78.9649 566.403 67.7999 575.435 55.595 584ZM145.861 584H112.076C145.943 546.585 170.378 503.884 195.76 458.239C226.169 403.557 287.124 362.345 361.342 341.706C419.691 325.48 486.103 322.014 552 334.662V380.59C485.733 367.994 418.98 371.526 360.27 387.852C285.373 408.68 223.347 450.4 192.265 506.295C177.123 533.524 162.389 559.566 145.861 584ZM150.682 584H176.669C181.879 574.917 187.047 565.677 192.265 556.295C223.347 500.4 285.373 458.68 360.27 437.852C418.98 421.526 485.733 417.994 552 430.59V384.662C486.103 372.014 419.691 375.48 361.342 391.706C287.124 412.345 226.169 453.557 195.76 508.239C181.086 534.628 166.728 560.032 150.682 584ZM206.839 584H181.279C186.119 575.531 190.923 566.938 195.76 558.239C226.169 503.557 287.124 462.345 361.342 441.706C419.691 425.48 486.103 422.014 552 434.662V480.59C485.733 467.994 418.98 471.526 360.27 487.852C295.7 505.808 240.696 539.292 206.839 584ZM211.888 584H259.727C288.503 563.943 322.774 548.279 360.27 537.852C418.98 521.526 485.733 517.994 552 530.59V484.662C486.103 472.014 419.691 475.48 361.342 491.706C298.534 509.172 245.224 541.371 211.888 584ZM375.275 584H266.831C294.156 565.807 326.268 551.459 361.342 541.706C419.691 525.48 486.103 522.014 552 534.662V580.59C491.316 569.055 430.224 571.045 375.275 584ZM394.669 584H548.471C495.99 574.387 443.279 574.951 394.669 584ZM200.635 0H239.039C219.766 16.5592 203.861 35.4405 192.265 56.2949C161.51 111.6 132.439 162.008 86.5902 203.996C63.0324 225.57 35.0101 244.949 0 261.602V216.027C36.1362 199.04 65.0274 179.167 89.2917 156.946C135.679 114.465 165.024 63.5108 195.76 8.23892C197.307 5.45745 198.933 2.71083 200.635 0ZM195.932 0H171.983C148.784 39.1863 123.736 75.402 89.2917 106.946C65.0274 129.167 36.1362 149.04 0 166.027V211.602C35.0101 194.949 63.0324 175.57 86.5902 153.996C132.439 112.008 161.51 61.6 192.265 6.29492C193.443 4.17613 194.665 2.0777 195.932 0ZM139.539 0H167.329C144.568 38.2361 120.046 73.3576 86.5902 103.996C63.0324 125.57 35.0101 144.949 0 161.602V116.027C36.1362 99.0395 65.0274 79.1667 89.2917 56.9457C108.535 39.3231 124.845 20.2423 139.539 0ZM134.586 0H96.6504C94.2451 2.33945 91.7932 4.65492 89.2917 6.94574C65.0274 29.1667 36.1362 49.0395 0 66.027V111.602C35.0101 94.9494 63.0324 75.5698 86.5902 53.9958C104.864 37.2605 120.473 19.1875 134.586 0ZM0 0H90.8768C89.4642 1.34023 88.0356 2.67221 86.5902 3.99582C63.0324 25.5698 35.0101 44.9494 0 61.6023V0Z" fill="#FFCF4F"/>
</svg>
