<svg width="178" height="50" viewBox="0 0 178 50" fill="none" xmlns="http://www.w3.org/2000/svg">
<rect x="18.4744" y="46.7246" width="48.1005" height="8.25784" rx="4.12892" transform="rotate(-72.6624 18.4744 46.7246)" fill="#53EDD1"/>
<rect x="4.81521" y="17.394" width="36.885" height="8.25784" rx="4.12892" transform="rotate(-28.1364 4.81521 17.394)" fill="#FF0076"/>
<rect y="36.7335" width="64.0378" height="8.25784" rx="4.12892" transform="rotate(-28.1364 0 36.7335)" fill="#4969F8"/>
<rect x="18.0278" y="42.718" width="36.885" height="8.25784" rx="4.12892" transform="rotate(-28.1364 18.0278 42.718)" fill="#FFCF4F"/>
<path d="M90.472 13.536H74.6V18.016H84.2L74.6 31.84V36H90.472V31.52H80.808L90.472 17.696V13.536ZM101.919 22.272C103.743 22.272 105.279 23.392 105.279 25.344H98.4305C98.7505 23.36 100.127 22.272 101.919 22.272ZM110.463 30.08H104.639C104.191 31.04 103.327 31.808 101.791 31.808C100.031 31.808 98.5905 30.72 98.3985 28.384H110.783C110.847 27.84 110.878 27.296 110.878 26.784C110.878 21.344 107.199 17.888 101.983 17.888C96.6705 17.888 92.9585 21.408 92.9585 27.072C92.9585 32.736 96.7345 36.256 101.983 36.256C106.431 36.256 109.599 33.568 110.463 30.08ZM126.085 36H131.525V25.568C131.525 20.768 128.773 17.952 124.645 17.952C122.245 17.952 120.325 19.008 119.237 20.512V18.144H113.765V36H119.237V26.304C119.237 23.872 120.581 22.528 122.661 22.528C124.741 22.528 126.085 23.872 126.085 26.304V36ZM134.24 27.04C134.24 32.672 137.728 36.256 142.112 36.256C144.736 36.256 146.624 35.072 147.616 33.44V36H153.088V12.32H147.616V20.608C146.528 18.976 144.48 17.888 142.112 17.888C137.728 17.888 134.24 21.408 134.24 27.04ZM147.616 27.072C147.616 29.92 145.792 31.488 143.712 31.488C141.664 31.488 139.808 29.888 139.808 27.04C139.808 24.192 141.664 22.656 143.712 22.656C145.792 22.656 147.616 24.224 147.616 27.072ZM157.047 36H162.519V18.144H157.047V36ZM159.799 16.288C161.719 16.288 163.031 14.976 163.031 13.344C163.031 11.68 161.719 10.368 159.799 10.368C157.847 10.368 156.535 11.68 156.535 13.344C156.535 14.976 157.847 16.288 159.799 16.288ZM167.348 29.792C167.348 34.432 169.94 36 173.652 36H176.436V31.36H174.484C173.268 31.36 172.82 30.912 172.82 29.856V22.688H176.404V18.144H172.82V13.792H167.348V18.144H165.172V22.688H167.348V29.792Z" fill="#172F53"/>
</svg>
