<svg width="44" height="40" viewBox="0 0 44 40" fill="none" xmlns="http://www.w3.org/2000/svg">
<path d="M8 30H6C4.93913 30 3.92172 29.5786 3.17157 28.8284C2.42143 28.0783 2 27.0609 2 26V6C2 4.93913 2.42143 3.92172 3.17157 3.17157C3.92172 2.42143 4.93913 2 6 2H38C39.0609 2 40.0783 2.42143 40.8284 3.17157C41.5786 3.92172 42 4.93913 42 6V26C42 27.0609 41.5786 28.0783 40.8284 28.8284C40.0783 29.5786 39.0609 30 38 30H36" stroke="#21D8E3" stroke-width="4" stroke-linecap="round" stroke-linejoin="round"/>
<path d="M22 26L32 38H12L22 26Z" stroke="#21D8E3" stroke-width="4" stroke-linecap="round" stroke-linejoin="round"/>
</svg>
