<svg width="240" height="240" viewBox="0 0 240 240" fill="none" xmlns="http://www.w3.org/2000/svg">
<circle cx="5.45455" cy="5.45455" r="5.45455" fill="#21D8E3"/>
<circle cx="5.45455" cy="136.364" r="5.45455" fill="#21D8E3"/>
<circle cx="5.45455" cy="70.9091" r="5.45455" fill="#21D8E3"/>
<circle cx="5.45455" cy="201.818" r="5.45455" fill="#21D8E3"/>
<circle cx="5.45455" cy="38.1818" r="5.45455" fill="#21D8E3"/>
<circle cx="5.45455" cy="169.091" r="5.45455" fill="#21D8E3"/>
<circle cx="5.45455" cy="103.636" r="5.45455" fill="#21D8E3"/>
<circle cx="5.45455" cy="234.545" r="5.45455" fill="#21D8E3"/>
<circle cx="136.364" cy="5.45455" r="5.45455" fill="#21D8E3"/>
<circle cx="136.364" cy="136.364" r="5.45455" fill="#21D8E3"/>
<circle cx="136.364" cy="70.9091" r="5.45455" fill="#21D8E3"/>
<circle cx="136.364" cy="201.818" r="5.45455" fill="#21D8E3"/>
<circle cx="136.364" cy="38.1818" r="5.45455" fill="#21D8E3"/>
<circle cx="136.364" cy="169.091" r="5.45455" fill="#21D8E3"/>
<circle cx="136.364" cy="103.636" r="5.45455" fill="#21D8E3"/>
<circle cx="136.364" cy="234.545" r="5.45455" fill="#21D8E3"/>
<circle cx="70.9091" cy="5.45455" r="5.45455" fill="#21D8E3"/>
<circle cx="70.9091" cy="136.364" r="5.45455" fill="#21D8E3"/>
<circle cx="70.9091" cy="70.9091" r="5.45455" fill="#21D8E3"/>
<circle cx="70.9091" cy="201.818" r="5.45455" fill="#21D8E3"/>
<circle cx="70.9091" cy="38.1818" r="5.45455" fill="#21D8E3"/>
<circle cx="70.9091" cy="169.091" r="5.45455" fill="#21D8E3"/>
<circle cx="70.9091" cy="103.636" r="5.45455" fill="#21D8E3"/>
<circle cx="70.9091" cy="234.545" r="5.45455" fill="#21D8E3"/>
<circle cx="201.818" cy="5.45455" r="5.45455" fill="#21D8E3"/>
<circle cx="201.818" cy="136.364" r="5.45455" fill="#21D8E3"/>
<circle cx="201.818" cy="70.9091" r="5.45455" fill="#21D8E3"/>
<circle cx="201.818" cy="201.818" r="5.45455" fill="#21D8E3"/>
<circle cx="201.818" cy="38.1818" r="5.45455" fill="#21D8E3"/>
<circle cx="201.818" cy="169.091" r="5.45455" fill="#21D8E3"/>
<circle cx="201.818" cy="103.636" r="5.45455" fill="#21D8E3"/>
<circle cx="201.818" cy="234.545" r="5.45455" fill="#21D8E3"/>
<circle cx="38.1818" cy="5.45455" r="5.45455" fill="#21D8E3"/>
<circle cx="38.1818" cy="136.364" r="5.45455" fill="#21D8E3"/>
<circle cx="38.1818" cy="70.9091" r="5.45455" fill="#21D8E3"/>
<circle cx="38.1818" cy="201.818" r="5.45455" fill="#21D8E3"/>
<circle cx="38.1818" cy="38.1818" r="5.45455" fill="#21D8E3"/>
<circle cx="38.1818" cy="169.091" r="5.45455" fill="#21D8E3"/>
<circle cx="38.1818" cy="103.636" r="5.45455" fill="#21D8E3"/>
<circle cx="38.1818" cy="234.545" r="5.45455" fill="#21D8E3"/>
<circle cx="169.091" cy="5.45455" r="5.45455" fill="#21D8E3"/>
<circle cx="169.091" cy="136.364" r="5.45455" fill="#21D8E3"/>
<circle cx="169.091" cy="70.9091" r="5.45455" fill="#21D8E3"/>
<circle cx="169.091" cy="201.818" r="5.45455" fill="#21D8E3"/>
<circle cx="169.091" cy="38.1818" r="5.45455" fill="#21D8E3"/>
<circle cx="169.091" cy="169.091" r="5.45455" fill="#21D8E3"/>
<circle cx="169.091" cy="103.636" r="5.45455" fill="#21D8E3"/>
<circle cx="169.091" cy="234.545" r="5.45455" fill="#21D8E3"/>
<circle cx="103.636" cy="5.45455" r="5.45455" fill="#21D8E3"/>
<circle cx="103.636" cy="136.364" r="5.45455" fill="#21D8E3"/>
<circle cx="103.636" cy="70.9091" r="5.45455" fill="#21D8E3"/>
<circle cx="103.636" cy="201.818" r="5.45455" fill="#21D8E3"/>
<circle cx="103.636" cy="38.1818" r="5.45455" fill="#21D8E3"/>
<circle cx="103.636" cy="169.091" r="5.45455" fill="#21D8E3"/>
<circle cx="103.636" cy="103.636" r="5.45455" fill="#21D8E3"/>
<circle cx="103.636" cy="234.545" r="5.45455" fill="#21D8E3"/>
<circle cx="234.545" cy="5.45455" r="5.45455" fill="#21D8E3"/>
<circle cx="234.545" cy="136.364" r="5.45455" fill="#21D8E3"/>
<circle cx="234.545" cy="70.9091" r="5.45455" fill="#21D8E3"/>
<circle cx="234.545" cy="201.818" r="5.45455" fill="#21D8E3"/>
<circle cx="234.545" cy="38.1818" r="5.45455" fill="#21D8E3"/>
<circle cx="234.545" cy="169.091" r="5.45455" fill="#21D8E3"/>
<circle cx="234.545" cy="103.636" r="5.45455" fill="#21D8E3"/>
<circle cx="234.545" cy="234.545" r="5.45455" fill="#21D8E3"/>
</svg>
