<svg width="248" height="248" viewBox="0 0 248 248" fill="none" xmlns="http://www.w3.org/2000/svg">
<path d="M0.000305176 117.111C-0.0471039 135.296 4.20157 153.235 12.4003 169.467C22.1214 188.918 37.0659 205.278 55.5598 216.715C74.0537 228.152 95.3666 234.214 117.111 234.222C135.296 234.27 153.235 230.021 169.467 221.822L248 248L221.822 169.467C230.021 153.235 234.27 135.296 234.222 117.111C234.214 95.3667 228.152 74.0538 216.715 55.5599C205.278 37.066 188.917 22.1215 169.467 12.4004C153.235 4.20166 135.296 -0.0470202 117.111 0.000392502H110.222C81.5047 1.58472 54.3805 13.706 34.0432 34.0433C13.7059 54.3806 1.58464 81.5048 0.000305176 110.222V117.111Z" fill="#F97936"/>
</svg>
